<svg xmlns="http://www.w3.org/2000/svg" width="100" height="100" id="geek"><path fill="#04cb94" d="M95.001 50c0 24.853-20.147 45-45 45-24.852 0-45-20.147-45-45 0-24.852 20.148-44.999 45-44.999 24.853 0 45 20.147 45 45z"></path><path fill="none" stroke="#000" stroke-width="4" d="M56.025 41.177a14.632 14.632 0 0 0-13.106-.246"></path><path fill="none" stroke="#000" stroke-linecap="round" stroke-linejoin="round" stroke-width="4" d="M21.123 40.28a5.463 5.463 0 0 1-4.633.088M82.627 40.783a5.463 5.463 0 0 1-4.633.089"></path><path fill="none" stroke="#000" stroke-width="4" d="M82.04 50.536c0 8.08-6.551 14.632-14.632 14.632s-14.632-6.551-14.632-14.632c0-8.08 6.55-14.632 14.632-14.632 8.08 0 14.631 6.551 14.631 14.632z"></path><path fill="#fff" d="M80.04 50.548c0 7.035-5.702 12.738-12.737 12.738-7.034 0-12.737-5.703-12.737-12.738 0-7.034 5.703-12.737 12.737-12.737 7.035 0 12.738 5.703 12.738 12.737z" opacity=".7"></path><path fill="none" stroke="#fff" stroke-linecap="round" stroke-linejoin="round" stroke-width="1.883" d="M77.782 50.34a14.632 14.632 0 0 1-6.783 9.208" opacity=".75"></path><path fill="none" stroke="#000" stroke-width="4" d="M46.431 50.536c0 8.08-6.55 14.632-14.631 14.632s-14.632-6.551-14.632-14.632c0-8.08 6.55-14.632 14.632-14.632 8.08 0 14.631 6.551 14.631 14.632z"></path><path fill="#fff" d="M44.433 50.548c0 7.035-5.703 12.738-12.738 12.738-7.034 0-12.737-5.703-12.737-12.738 0-7.034 5.703-12.737 12.737-12.737 7.035 0 12.738 5.703 12.738 12.737z" opacity=".7"></path></svg>